<svg width="61" height="60" viewBox="0 0 61 60" fill="none" xmlns="http://www.w3.org/2000/svg">
<g clip-path="url(#clip0_38_4259)">
<g clip-path="url(#clip1_38_4259)">
<path d="M32.1834 11.7437H25.2473C24.2668 11.7437 23.498 12.5457 23.498 13.4929V38.4032C23.498 39.3692 24.2812 40.1524 25.2473 40.1524C26.2133 40.1524 26.9965 39.3692 26.9965 38.4032V29.3227C28.6198 29.3136 30.9954 29.3016 32.1835 29.3016C34.528 29.3016 36.7512 28.3942 38.4433 26.7466C40.1565 25.0786 41.1 22.8681 41.1 20.5226C41.1 18.1771 40.1565 15.9667 38.4433 14.2985C36.7511 12.651 34.528 11.7437 32.1834 11.7437ZM32.1834 25.8031C31.0023 25.8031 28.6604 25.8149 27.0348 25.824C27.0052 20.3759 27.0222 22.2079 27.0018 15.2421H32.1834C35.1203 15.2421 37.6015 17.6603 37.6015 20.5226C37.6015 23.3849 35.1203 25.8031 32.1834 25.8031Z" fill="white"/>
<path d="M48.6415 7.80674C43.796 2.96112 37.3532 0.29248 30.5003 0.29248C23.6474 0.29248 17.2047 2.96112 12.3591 7.80674C-1.72753 21.8934 4.96307 46.176 24.4363 50.8811V57.0844C24.4363 58.692 25.7441 59.9998 27.3517 59.9998H33.6489C35.2565 59.9998 36.5643 58.692 36.5643 57.0844V50.8811C56.0563 46.1715 62.7183 21.8834 48.6415 7.80674ZM33.0658 56.5013H27.9348V51.4765C29.6362 51.6453 31.3644 51.6453 33.0658 51.4765V56.5013ZM34.501 47.7451C21.0143 50.2062 8.3433 39.9208 8.3433 25.948C8.3433 13.7306 18.2828 3.79096 30.5003 3.79096C42.7178 3.79096 52.6573 13.7306 52.6573 25.948C52.6573 36.6436 45.0403 45.8219 34.501 47.7451Z" fill="white"/>
</g>
</g>
<defs>
<clipPath id="clip0_38_4259">
<rect width="59.7073" height="59.7073" fill="white" transform="translate(0.646484 0.29248)"/>
</clipPath>
<clipPath id="clip1_38_4259">
<rect width="59.7073" height="59.7073" fill="white" transform="translate(0.646484 0.29248)"/>
</clipPath>
</defs>
</svg>
