<svg xmlns="http://www.w3.org/2000/svg" xmlns:xlink="http://www.w3.org/1999/xlink" width="500" zoomAndPan="magnify" viewBox="0 0 375 374.999991" height="500" preserveAspectRatio="xMidYMid meet" version="1.0"><defs><g/><clipPath id="53544f639d"><path d="M 111.140625 129 L 264 129 L 264 172.277344 L 111.140625 172.277344 Z M 111.140625 129 " clip-rule="nonzero"/></clipPath><clipPath id="2717753bc4"><path d="M 160 167 L 199.308594 167 L 199.308594 188 L 160 188 Z M 160 167 " clip-rule="nonzero"/></clipPath></defs><rect x="-37.5" width="450" fill="#ffffff" y="-37.499999" height="449.999989" fill-opacity="1"/><g clip-path="url(#53544f639d)"><path fill="#405751" d="M 111.402344 172.574219 C 113.816406 170.847656 118.988281 168.917969 123.503906 165.808594 C 127.839844 162.820312 129.695312 160.410156 134.941406 157.492188 C 137.007812 156.34375 139.15625 155.117188 140.726562 154.042969 C 142.171875 153.054688 143.308594 153.578125 144.714844 154.386719 C 149 156.863281 151.851562 156.734375 155.808594 153.15625 C 161.546875 147.972656 168.09375 139.066406 174.082031 134.945312 C 179.386719 131.296875 181.527344 126.457031 188.707031 131.03125 C 198 136.957031 199.558594 142.40625 211.140625 147.007812 C 216.707031 149.222656 223.445312 152.867188 227.570312 156.953125 C 229.667969 159.027344 235.648438 161.335938 240.097656 163.039062 C 248.0625 166.085938 255.355469 169.027344 263.578125 172.089844 C 261.042969 172.71875 254.691406 171.808594 251.984375 170.945312 C 244.863281 168.675781 235.519531 170.742188 233.683594 167.617188 C 233.375 167.085938 233.003906 166.449219 232.371094 165.71875 C 230.242188 163.261719 228.8125 166.519531 227.394531 168.097656 C 223.964844 171.917969 225.820312 161.792969 221.304688 163.542969 C 220.855469 163.71875 213.996094 168.679688 216.375 164.21875 C 217.109375 162.839844 218.480469 160.539062 218.125 158.203125 C 217.425781 153.609375 213.242188 155.125 211.226562 157.199219 C 208.449219 160.066406 204.972656 162.484375 201.4375 163.613281 C 199.640625 164.1875 198.089844 164.710938 196.757812 165.179688 C 195.375 165.660156 194.226562 166.082031 193.273438 166.4375 C 188.726562 168.136719 190.136719 162.460938 190.070312 160.5 C 190.03125 159.347656 188.308594 158.832031 186.6875 159.660156 C 184.695312 160.679688 182.105469 162.179688 179.90625 163.335938 C 173.53125 166.6875 168.765625 164.203125 176.5625 160.871094 C 178.390625 160.089844 180.648438 159.085938 182.109375 157.277344 C 184.304688 154.5625 182.53125 153.8125 179.832031 154.980469 C 178.738281 155.457031 177.300781 155.726562 176.03125 156.914062 C 174.160156 158.667969 173.765625 156.253906 176.691406 152.613281 C 178.28125 150.632812 179.832031 149.8125 181.8125 148.394531 C 183.078125 147.488281 184.550781 146.144531 184.777344 144.371094 C 185.089844 141.867188 185.128906 132.203125 181.105469 134.402344 C 175.3125 137.570312 175.324219 139.730469 172.105469 144.808594 C 169.511719 148.910156 164.734375 152.738281 160.234375 155.652344 C 157.460938 157.445312 146.390625 170.023438 146.773438 165.941406 C 146.847656 165.160156 147.84375 162.148438 147.808594 162.0625 C 144.835938 161.078125 144.082031 167.914062 138.902344 167.914062 C 137.796875 167.914062 137.707031 164.800781 141.074219 162.691406 C 142.160156 162.007812 147.65625 156.007812 137.917969 159.972656 C 134.539062 161.347656 125.773438 168.667969 119.808594 171.023438 C 117.441406 171.960938 114.117188 172.503906 111.402344 172.574219 " fill-opacity="1" fill-rule="evenodd"/></g><g clip-path="url(#2717753bc4)"><path fill="#405751" d="M 174.378906 175.359375 C 172.949219 168.988281 166.867188 167.949219 165.605469 173.664062 C 165.640625 173.527344 165.613281 173.636719 165.621094 173.609375 C 164.320312 179.71875 171.636719 183.105469 176.820312 183.046875 C 176.808594 183.046875 176.871094 183.042969 176.796875 183.050781 C 184.238281 182.878906 192.5 179.441406 199.53125 183.101562 C 195.996094 182.707031 191.863281 183.695312 188.464844 184.847656 C 170.398438 192.03125 162.761719 183.539062 161.03125 178.59375 C 158.785156 171.867188 164.878906 164.511719 171.335938 167.824219 C 171.332031 167.824219 171.417969 167.859375 171.390625 167.847656 C 174.101562 169.222656 175.046875 172.425781 174.378906 175.359375 " fill-opacity="1" fill-rule="nonzero"/></g><path fill="#405751" d="M 150.230469 173.761719 C 152.414062 190.351562 166.042969 192.246094 179.398438 189.777344 C 185.761719 188.417969 192.199219 184.777344 198.800781 186.148438 C 195.269531 186.765625 191.53125 188.828125 188.371094 190.585938 C 168.539062 202.367188 144.59375 192.191406 150.230469 173.761719 " fill-opacity="1" fill-rule="nonzero"/><path fill="#405751" d="M 158.738281 163.335938 C 158.738281 163.335938 148.863281 175.585938 162.804688 186.519531 C 162.804688 186.519531 143.058594 177.238281 158.738281 163.335938 " fill-opacity="1" fill-rule="nonzero"/><path fill="#405751" d="M 170.722656 163.808594 C 170.722656 163.808594 160.082031 162.421875 158.265625 172.78125 C 158.265625 172.78125 157.136719 159.949219 170.722656 163.808594 " fill-opacity="1" fill-rule="nonzero"/><g fill="#405751" fill-opacity="1"><g transform="translate(98.378216, 212.093115)"><g><path d="M 9.796875 -6.046875 C 10.613281 -6.605469 11.03125 -7.390625 11.015625 -8.644531 C 11.015625 -10.085938 9.636719 -11.207031 8.210938 -11.207031 L 0.496094 -11.207031 C 0.496094 -11.207031 1.28125 -10.871094 1.28125 -9.78125 L 1.28125 -1.425781 C 1.28125 -0.449219 0.496094 0.015625 0.496094 0.015625 L 8.386719 0.015625 C 9.988281 0.015625 11.511719 -1.265625 11.511719 -2.871094 C 11.496094 -4.363281 10.917969 -5.453125 9.796875 -6.046875 Z M 7.328125 -9.460938 C 8.625 -9.460938 9.476562 -8.789062 9.074219 -7.632812 C 8.851562 -6.976562 8 -6.863281 7.199219 -6.863281 L 3.09375 -6.863281 L 3.09375 -8.257812 C 3.09375 -8.914062 3.625 -9.460938 4.296875 -9.460938 Z M 7.457031 -1.746094 L 4.21875 -1.746094 C 3.59375 -1.746094 3.09375 -2.246094 3.09375 -2.871094 L 3.09375 -5.113281 L 7.28125 -5.113281 C 8.386719 -5.113281 9.429688 -4.84375 9.652344 -3.769531 C 9.941406 -2.421875 8.882812 -1.746094 7.457031 -1.746094 Z M 7.457031 -1.746094 "/></g></g></g><g fill="#405751" fill-opacity="1"><g transform="translate(115.26062, 212.093115)"><g><path d="M 6.71875 -9.636719 C 9.378906 -9.636719 11.128906 -7.890625 11.128906 -5.597656 C 11.128906 -3.335938 9.378906 -1.570312 6.71875 -1.570312 C 4.058594 -1.570312 2.308594 -3.511719 2.308594 -5.597656 C 2.308594 -7.824219 4.058594 -9.636719 6.71875 -9.636719 Z M 0.511719 -5.597656 C 0.511719 -2.019531 3.527344 0.175781 6.71875 0.175781 C 9.910156 0.175781 12.925781 -2.101562 12.925781 -5.597656 C 12.925781 -9.09375 9.910156 -11.386719 6.71875 -11.386719 C 3.527344 -11.386719 0.511719 -9.1875 0.511719 -5.597656 Z M 0.511719 -5.597656 "/></g></g></g><g fill="#405751" fill-opacity="1"><g transform="translate(133.457585, 212.093115)"><g><path d="M 14.253906 0.015625 L 17.65625 0.015625 C 17.65625 0.015625 16.851562 -0.367188 16.851562 -1.425781 L 16.851562 -11.207031 L 13.40625 -11.207031 L 9.621094 -1.746094 L 8.5 -1.746094 L 4.714844 -11.207031 L 1.265625 -11.207031 L 1.265625 -1.425781 C 1.265625 -0.546875 0.480469 0.015625 0.480469 0.015625 L 3.863281 0.015625 C 3.863281 0.015625 3.078125 -0.480469 3.078125 -1.425781 L 3.078125 -9.460938 L 3.527344 -9.460938 L 7.3125 0.015625 L 10.808594 0 L 14.59375 -9.460938 L 15.039062 -9.460938 L 15.039062 -1.425781 C 15.039062 -0.417969 14.253906 0.015625 14.253906 0.015625 Z M 14.253906 0.015625 "/></g></g></g><g fill="#405751" fill-opacity="1"><g transform="translate(156.351687, 212.093115)"><g><path d="M 0.449219 -11.222656 C 0.449219 -11.222656 1.25 -10.710938 1.25 -9.78125 L 1.25 -2.132812 C 1.25 0.625 -0.976562 2.839844 -3.734375 2.839844 L -3.734375 3.753906 C -0.464844 3.753906 3.0625 1.089844 3.0625 -2.179688 L 3.0625 -9.78125 C 3.0625 -10.757812 3.847656 -11.222656 3.847656 -11.222656 Z M 0.449219 -11.222656 "/></g></g></g><g fill="#405751" fill-opacity="1"><g transform="translate(165.378797, 212.093115)"><g><path d="M 3.0625 -9.78125 C 3.0625 -10.855469 3.847656 -11.222656 3.847656 -11.222656 L 0.464844 -11.222656 C 0.464844 -11.222656 1.25 -10.742188 1.25 -9.78125 L 1.25 -1.425781 C 1.25 -0.464844 0.464844 0 0.464844 0 L 3.847656 0 C 3.847656 0 3.0625 -0.464844 3.0625 -1.425781 Z M 3.0625 -9.78125 "/></g></g></g><g fill="#405751" fill-opacity="1"><g transform="translate(174.437974, 212.093115)"><g><path d="M 10.328125 -2.148438 L 8.625 -4.34375 C 10.292969 -4.457031 11.59375 -5.722656 11.59375 -7.96875 C 11.59375 -9.765625 10.132812 -11.222656 8.355469 -11.222656 L 0.464844 -11.222656 C 0.464844 -11.222656 1.25 -10.710938 1.25 -9.636719 L 1.25 -1.425781 C 1.25 -0.449219 0.464844 0 0.464844 0 L 3.847656 0 C 3.847656 0 3.0625 -0.449219 3.0625 -1.425781 L 3.0625 -4.328125 L 6.589844 -4.328125 L 8.644531 -1.667969 C 9.460938 -0.609375 11.59375 0 12.925781 0 L 12.925781 -0.898438 C 11.898438 -0.898438 10.953125 -1.347656 10.328125 -2.148438 Z M 3.0625 -6.078125 L 3.0625 -8.339844 C 3.0625 -8.949219 3.574219 -9.460938 4.199219 -9.460938 L 7.488281 -9.460938 C 8.949219 -9.460938 10.039062 -8.59375 9.734375 -7.390625 C 9.539062 -6.605469 8.433594 -6.078125 7.328125 -6.078125 Z M 3.0625 -6.078125 "/></g></g></g><g fill="#405751" fill-opacity="1"><g transform="translate(192.282253, 212.093115)"><g/></g></g><g fill="#405751" fill-opacity="1"><g transform="translate(201.838395, 212.093115)"><g><path d="M 10.328125 -2.148438 L 8.625 -4.34375 C 10.292969 -4.457031 11.59375 -5.722656 11.59375 -7.96875 C 11.59375 -9.765625 10.132812 -11.222656 8.355469 -11.222656 L 0.464844 -11.222656 C 0.464844 -11.222656 1.25 -10.710938 1.25 -9.636719 L 1.25 -1.425781 C 1.25 -0.449219 0.464844 0 0.464844 0 L 3.847656 0 C 3.847656 0 3.0625 -0.449219 3.0625 -1.425781 L 3.0625 -4.328125 L 6.589844 -4.328125 L 8.644531 -1.667969 C 9.460938 -0.609375 11.59375 0 12.925781 0 L 12.925781 -0.898438 C 11.898438 -0.898438 10.953125 -1.347656 10.328125 -2.148438 Z M 3.0625 -6.078125 L 3.0625 -8.339844 C 3.0625 -8.949219 3.574219 -9.460938 4.199219 -9.460938 L 7.488281 -9.460938 C 8.949219 -9.460938 10.039062 -8.59375 9.734375 -7.390625 C 9.539062 -6.605469 8.433594 -6.078125 7.328125 -6.078125 Z M 3.0625 -6.078125 "/></g></g></g><g fill="#405751" fill-opacity="1"><g transform="translate(219.682675, 212.093115)"><g><path d="M 3.0625 -9.78125 C 3.0625 -10.855469 3.847656 -11.222656 3.847656 -11.222656 L 0.464844 -11.222656 C 0.464844 -11.222656 1.25 -10.742188 1.25 -9.78125 L 1.25 -1.425781 C 1.25 -0.464844 0.464844 0 0.464844 0 L 3.847656 0 C 3.847656 0 3.0625 -0.464844 3.0625 -1.425781 Z M 3.0625 -9.78125 "/></g></g></g><g fill="#405751" fill-opacity="1"><g transform="translate(228.741852, 212.093115)"><g><path d="M 9.269531 -11.222656 C 9.269531 -11.222656 10.519531 -10.308594 10.328125 -9.71875 L 7.152344 -1.746094 L 6.496094 -1.746094 L 3.320312 -9.71875 C 3.125 -10.308594 4.394531 -11.222656 4.394531 -11.222656 L -0.144531 -11.222656 C -0.144531 -11.222656 0.832031 -10.792969 1.425781 -9.558594 L 5.226562 0 L 8.417969 0 L 12.21875 -9.558594 C 12.828125 -10.792969 13.804688 -11.222656 13.804688 -11.222656 Z M 9.269531 -11.222656 "/></g></g></g><g fill="#405751" fill-opacity="1"><g transform="translate(247.163245, 212.093115)"><g><path d="M 8.753906 -1.746094 L 4.21875 -1.746094 C 3.609375 -1.746094 3.09375 -2.246094 3.09375 -2.871094 L 3.09375 -4.828125 L 6.542969 -4.828125 C 7.183594 -4.828125 8.035156 -4.3125 8.035156 -4.3125 L 8.035156 -7.054688 C 8.035156 -7.054688 7.136719 -6.589844 6.542969 -6.589844 L 3.09375 -6.589844 L 3.09375 -8.320312 C 3.09375 -8.949219 3.609375 -9.460938 4.234375 -9.460938 L 8.355469 -9.460938 C 8.929688 -9.460938 10.664062 -7.617188 10.664062 -7.617188 L 9.765625 -11.207031 L 0.496094 -11.207031 C 0.496094 -11.207031 1.28125 -10.648438 1.28125 -9.78125 L 1.28125 -1.460938 C 1.28125 -0.464844 0.496094 0.015625 0.496094 0.015625 L 10.328125 0.015625 L 11.046875 -3.878906 C 11.046875 -3.878906 9.316406 -1.746094 8.753906 -1.746094 Z M 8.753906 -1.746094 "/></g></g></g><g fill="#405751" fill-opacity="1"><g transform="translate(263.500589, 212.093115)"><g><path d="M 10.328125 -2.148438 L 8.625 -4.34375 C 10.292969 -4.457031 11.59375 -5.722656 11.59375 -7.96875 C 11.59375 -9.765625 10.132812 -11.222656 8.355469 -11.222656 L 0.464844 -11.222656 C 0.464844 -11.222656 1.25 -10.710938 1.25 -9.636719 L 1.25 -1.425781 C 1.25 -0.449219 0.464844 0 0.464844 0 L 3.847656 0 C 3.847656 0 3.0625 -0.449219 3.0625 -1.425781 L 3.0625 -4.328125 L 6.589844 -4.328125 L 8.644531 -1.667969 C 9.460938 -0.609375 11.59375 0 12.925781 0 L 12.925781 -0.898438 C 11.898438 -0.898438 10.953125 -1.347656 10.328125 -2.148438 Z M 3.0625 -6.078125 L 3.0625 -8.339844 C 3.0625 -8.949219 3.574219 -9.460938 4.199219 -9.460938 L 7.488281 -9.460938 C 8.949219 -9.460938 10.039062 -8.59375 9.734375 -7.390625 C 9.539062 -6.605469 8.433594 -6.078125 7.328125 -6.078125 Z M 3.0625 -6.078125 "/></g></g></g><g fill="#405751" fill-opacity="1"><g transform="translate(151.768837, 224.843114)"><g><path d="M 11.738281 -4.058594 C 11.738281 -4.058594 10.582031 -1.570312 6.621094 -1.570312 C 3.945312 -1.570312 2.277344 -3.320312 2.277344 -5.613281 C 2.277344 -7.855469 3.945312 -9.636719 6.605469 -9.636719 C 9.140625 -9.636719 10.855469 -8.804688 10.855469 -7.457031 L 12.667969 -7.265625 C 12.667969 -9.8125 9.636719 -11.386719 6.671875 -11.386719 C 3.464844 -11.386719 0.480469 -8.789062 0.480469 -5.613281 C 0.480469 -2.40625 3.464844 0.175781 6.671875 0.175781 C 11.191406 0.175781 12.507812 -3.574219 12.507812 -3.574219 Z M 11.738281 -4.058594 "/></g></g></g><g fill="#405751" fill-opacity="1"><g transform="translate(169.661206, 224.843114)"><g><path d="M 9.398438 0.015625 L 13.933594 0.015625 C 13.933594 0.015625 12.957031 -0.417969 12.347656 -1.652344 L 8.546875 -11.207031 L 5.355469 -11.207031 L 1.554688 -1.652344 C 0.960938 -0.417969 -0.015625 0.015625 -0.015625 0.015625 L 4.523438 0.015625 C 4.523438 0.015625 3.253906 -0.898438 3.449219 -1.492188 L 4.3125 -3.671875 L 9.589844 -3.671875 L 10.453125 -1.492188 C 10.648438 -0.898438 9.398438 0.015625 9.398438 0.015625 Z M 5.019531 -5.4375 L 6.621094 -9.460938 L 7.28125 -9.460938 L 8.898438 -5.4375 Z M 5.019531 -5.4375 "/></g></g></g><g fill="#405751" fill-opacity="1"><g transform="translate(188.339109, 224.843114)"><g><path d="M 14.253906 0.015625 L 17.65625 0.015625 C 17.65625 0.015625 16.851562 -0.367188 16.851562 -1.425781 L 16.851562 -11.207031 L 13.40625 -11.207031 L 9.621094 -1.746094 L 8.5 -1.746094 L 4.714844 -11.207031 L 1.265625 -11.207031 L 1.265625 -1.425781 C 1.265625 -0.546875 0.480469 0.015625 0.480469 0.015625 L 3.863281 0.015625 C 3.863281 0.015625 3.078125 -0.480469 3.078125 -1.425781 L 3.078125 -9.460938 L 3.527344 -9.460938 L 7.3125 0.015625 L 10.808594 0 L 14.59375 -9.460938 L 15.039062 -9.460938 L 15.039062 -1.425781 C 15.039062 -0.417969 14.253906 0.015625 14.253906 0.015625 Z M 14.253906 0.015625 "/></g></g></g><g fill="#405751" fill-opacity="1"><g transform="translate(211.233211, 224.843114)"><g><path d="M 8.339844 -11.207031 L 8.339844 -11.222656 L 0.464844 -11.222656 C 0.464844 -11.222656 1.25 -10.710938 1.25 -9.636719 L 1.25 -1.425781 C 1.25 -0.464844 0.464844 0 0.464844 0 L 3.847656 0 C 3.847656 0 3.0625 -0.464844 3.0625 -1.425781 L 3.0625 -4.328125 L 8.339844 -4.328125 C 10.132812 -4.328125 11.59375 -5.613281 11.59375 -7.96875 C 11.59375 -9.765625 10.132812 -11.207031 8.339844 -11.207031 Z M 7.328125 -6.078125 L 3.0625 -6.078125 L 3.0625 -8.339844 C 3.0625 -8.949219 3.574219 -9.460938 4.199219 -9.460938 L 7.503906 -9.460938 C 8.964844 -9.460938 10.039062 -8.59375 9.734375 -7.390625 C 9.539062 -6.605469 8.433594 -6.078125 7.328125 -6.078125 Z M 7.328125 -6.078125 "/></g></g></g></svg>