<svg xmlns="http://www.w3.org/2000/svg" xmlns:xlink="http://www.w3.org/1999/xlink" width="359" zoomAndPan="magnify" viewBox="0 0 269.25 107.249998" height="143" preserveAspectRatio="xMidYMid meet" version="1.0"><defs><g/><clipPath id="e2ab44bd84"><path d="M 58.410156 2 L 210 2 L 210 45.433594 L 58.410156 45.433594 Z M 58.410156 2 " clip-rule="nonzero"/></clipPath><clipPath id="d6ef06f67b"><path d="M 107 40 L 145.96875 40 L 145.96875 61 L 107 61 Z M 107 40 " clip-rule="nonzero"/></clipPath><clipPath id="7896acdb06"><path d="M 96 46 L 145.96875 46 L 145.96875 69 L 96 69 Z M 96 46 " clip-rule="nonzero"/></clipPath></defs><g clip-path="url(#e2ab44bd84)"><path fill="#405751" d="M 58.671875 45.726562 C 61.070312 44.015625 66.207031 42.097656 70.6875 39.007812 C 74.996094 36.039062 76.835938 33.648438 82.046875 30.75 C 84.097656 29.609375 86.230469 28.394531 87.792969 27.324219 C 89.230469 26.34375 90.359375 26.863281 91.75 27.667969 C 96.007812 30.125 98.839844 29.996094 102.769531 26.445312 C 108.46875 21.296875 114.96875 12.453125 120.917969 8.359375 C 126.183594 4.738281 128.3125 -0.0703125 135.4375 4.472656 C 144.667969 10.359375 146.21875 15.769531 157.71875 20.339844 C 163.246094 22.535156 169.9375 26.15625 174.035156 30.214844 C 176.117188 32.273438 182.054688 34.570312 186.472656 36.257812 C 194.382812 39.285156 201.625 42.203125 209.792969 45.246094 C 207.273438 45.871094 200.964844 44.964844 198.277344 44.109375 C 191.203125 41.855469 181.925781 43.90625 180.105469 40.804688 C 179.796875 40.277344 179.429688 39.644531 178.800781 38.921875 C 176.6875 36.480469 175.265625 39.714844 173.859375 41.28125 C 170.453125 45.078125 172.292969 35.023438 167.808594 36.761719 C 167.367188 36.933594 160.554688 41.863281 162.914062 37.429688 C 163.644531 36.058594 165.007812 33.777344 164.652344 31.457031 C 163.960938 26.894531 159.804688 28.398438 157.804688 30.460938 C 155.042969 33.304688 151.59375 35.707031 148.082031 36.828125 C 146.296875 37.402344 144.757812 37.917969 143.433594 38.382812 C 142.0625 38.863281 140.921875 39.28125 139.972656 39.632812 C 135.460938 41.324219 136.859375 35.6875 136.792969 33.738281 C 136.753906 32.59375 135.042969 32.082031 133.4375 32.902344 C 131.453125 33.917969 128.882812 35.40625 126.699219 36.554688 C 120.367188 39.882812 115.636719 37.417969 123.378906 34.105469 C 125.195312 33.328125 127.4375 32.332031 128.890625 30.539062 C 131.066406 27.839844 129.304688 27.097656 126.625 28.257812 C 125.539062 28.726562 124.113281 28.996094 122.851562 30.175781 C 120.992188 31.917969 120.605469 29.523438 123.507812 25.90625 C 125.085938 23.9375 126.625 23.125 128.59375 21.714844 C 129.847656 20.816406 131.3125 19.484375 131.535156 17.71875 C 131.847656 15.234375 131.886719 5.636719 127.890625 7.820312 C 122.136719 10.964844 122.148438 13.113281 118.957031 18.152344 C 116.375 22.226562 111.632812 26.03125 107.164062 28.921875 C 104.410156 30.703125 93.417969 43.195312 93.796875 39.140625 C 93.871094 38.363281 94.859375 35.375 94.828125 35.289062 C 91.875 34.3125 91.125 41.101562 85.980469 41.101562 C 84.882812 41.101562 84.796875 38.011719 88.136719 35.910156 C 89.214844 35.234375 94.671875 29.277344 85.003906 33.210938 C 81.648438 34.578125 72.945312 41.847656 67.019531 44.1875 C 64.667969 45.117188 61.371094 45.65625 58.671875 45.726562 " fill-opacity="1" fill-rule="evenodd"/></g><g clip-path="url(#d6ef06f67b)"><path fill="#405751" d="M 121.210938 48.492188 C 119.792969 42.167969 113.75 41.136719 112.496094 46.808594 C 112.535156 46.671875 112.507812 46.78125 112.511719 46.757812 C 111.222656 52.824219 118.488281 56.1875 123.632812 56.128906 C 123.621094 56.128906 123.683594 56.125 123.613281 56.128906 C 131.003906 55.960938 139.207031 52.546875 146.191406 56.183594 C 142.675781 55.792969 138.574219 56.773438 135.199219 57.914062 C 117.257812 65.050781 109.671875 56.613281 107.957031 51.703125 C 105.726562 45.027344 111.777344 37.722656 118.191406 41.011719 C 118.1875 41.007812 118.273438 41.042969 118.246094 41.035156 C 120.933594 42.402344 121.875 45.582031 121.210938 48.492188 " fill-opacity="1" fill-rule="nonzero"/></g><g clip-path="url(#7896acdb06)"><path fill="#405751" d="M 97.226562 46.90625 C 99.398438 63.382812 112.933594 65.261719 126.195312 62.808594 C 132.515625 61.460938 138.90625 57.847656 145.460938 59.210938 C 141.957031 59.820312 138.246094 61.871094 135.105469 63.613281 C 115.410156 75.3125 91.632812 65.210938 97.226562 46.90625 " fill-opacity="1" fill-rule="nonzero"/></g><path fill="#405751" d="M 105.679688 36.554688 C 105.679688 36.554688 95.875 48.71875 109.71875 59.578125 C 109.71875 59.578125 90.109375 50.359375 105.679688 36.554688 " fill-opacity="1" fill-rule="nonzero"/><path fill="#405751" d="M 117.578125 37.023438 C 117.578125 37.023438 107.011719 35.644531 105.210938 45.933594 C 105.210938 45.933594 104.085938 33.191406 117.578125 37.023438 " fill-opacity="1" fill-rule="nonzero"/><g fill="#405751" fill-opacity="1"><g transform="translate(45.738256, 84.972231)"><g><path d="M 9.730469 -6.003906 C 10.542969 -6.558594 10.957031 -7.339844 10.941406 -8.582031 C 10.941406 -10.015625 9.570312 -11.128906 8.152344 -11.128906 L 0.492188 -11.128906 C 0.492188 -11.128906 1.273438 -10.796875 1.273438 -9.714844 L 1.273438 -1.417969 C 1.273438 -0.445312 0.492188 0.015625 0.492188 0.015625 L 8.328125 0.015625 C 9.921875 0.015625 11.433594 -1.257812 11.433594 -2.851562 C 11.417969 -4.332031 10.84375 -5.414062 9.730469 -6.003906 Z M 7.277344 -9.394531 C 8.566406 -9.394531 9.410156 -8.726562 9.011719 -7.578125 C 8.789062 -6.925781 7.945312 -6.816406 7.148438 -6.816406 L 3.074219 -6.816406 L 3.074219 -8.199219 C 3.074219 -8.855469 3.597656 -9.394531 4.265625 -9.394531 Z M 7.40625 -1.734375 L 4.1875 -1.734375 C 3.566406 -1.734375 3.074219 -2.230469 3.074219 -2.851562 L 3.074219 -5.078125 L 7.230469 -5.078125 C 8.328125 -5.078125 9.363281 -4.808594 9.585938 -3.742188 C 9.871094 -2.40625 8.820312 -1.734375 7.40625 -1.734375 Z M 7.40625 -1.734375 "/></g></g></g><g fill="#405751" fill-opacity="1"><g transform="translate(62.503422, 84.972231)"><g><path d="M 6.671875 -9.570312 C 9.316406 -9.570312 11.050781 -7.835938 11.050781 -5.558594 C 11.050781 -3.3125 9.316406 -1.558594 6.671875 -1.558594 C 4.027344 -1.558594 2.292969 -3.488281 2.292969 -5.558594 C 2.292969 -7.769531 4.027344 -9.570312 6.671875 -9.570312 Z M 0.507812 -5.558594 C 0.507812 -2.007812 3.503906 0.175781 6.671875 0.175781 C 9.839844 0.175781 12.835938 -2.085938 12.835938 -5.558594 C 12.835938 -9.027344 9.839844 -11.304688 6.671875 -11.304688 C 3.503906 -11.304688 0.507812 -9.125 0.507812 -5.558594 Z M 0.507812 -5.558594 "/></g></g></g><g fill="#405751" fill-opacity="1"><g transform="translate(80.57402, 84.972231)"><g><path d="M 14.15625 0.015625 L 17.53125 0.015625 C 17.53125 0.015625 16.734375 -0.367188 16.734375 -1.417969 L 16.734375 -11.128906 L 13.3125 -11.128906 L 9.554688 -1.734375 L 8.441406 -1.734375 L 4.679688 -11.128906 L 1.257812 -11.128906 L 1.257812 -1.417969 C 1.257812 -0.542969 0.476562 0.015625 0.476562 0.015625 L 3.835938 0.015625 C 3.835938 0.015625 3.058594 -0.476562 3.058594 -1.417969 L 3.058594 -9.394531 L 3.503906 -9.394531 L 7.261719 0.015625 L 10.734375 0 L 14.492188 -9.394531 L 14.9375 -9.394531 L 14.9375 -1.417969 C 14.9375 -0.414062 14.15625 0.015625 14.15625 0.015625 Z M 14.15625 0.015625 "/></g></g></g><g fill="#405751" fill-opacity="1"><g transform="translate(103.309137, 84.972231)"><g><path d="M 0.445312 -11.148438 C 0.445312 -11.148438 1.242188 -10.636719 1.242188 -9.714844 L 1.242188 -2.117188 C 1.242188 0.621094 -0.972656 2.820312 -3.710938 2.820312 L -3.710938 3.726562 C -0.460938 3.726562 3.042969 1.082031 3.042969 -2.164062 L 3.042969 -9.714844 C 3.042969 -10.683594 3.820312 -11.148438 3.820312 -11.148438 Z M 0.445312 -11.148438 "/></g></g></g><g fill="#405751" fill-opacity="1"><g transform="translate(112.273559, 84.972231)"><g><path d="M 3.042969 -9.714844 C 3.042969 -10.78125 3.820312 -11.148438 3.820312 -11.148438 L 0.460938 -11.148438 C 0.460938 -11.148438 1.242188 -10.667969 1.242188 -9.714844 L 1.242188 -1.417969 C 1.242188 -0.460938 0.460938 0 0.460938 0 L 3.820312 0 C 3.820312 0 3.042969 -0.460938 3.042969 -1.417969 Z M 3.042969 -9.714844 "/></g></g></g><g fill="#405751" fill-opacity="1"><g transform="translate(121.269826, 84.972231)"><g><path d="M 10.253906 -2.132812 L 8.566406 -4.316406 C 10.222656 -4.425781 11.511719 -5.683594 11.511719 -7.914062 C 11.511719 -9.699219 10.0625 -11.148438 8.296875 -11.148438 L 0.460938 -11.148438 C 0.460938 -11.148438 1.242188 -10.636719 1.242188 -9.570312 L 1.242188 -1.417969 C 1.242188 -0.445312 0.460938 0 0.460938 0 L 3.820312 0 C 3.820312 0 3.042969 -0.445312 3.042969 -1.417969 L 3.042969 -4.300781 L 6.542969 -4.300781 L 8.582031 -1.65625 C 9.394531 -0.605469 11.511719 0 12.835938 0 L 12.835938 -0.890625 C 11.816406 -0.890625 10.875 -1.335938 10.253906 -2.132812 Z M 3.042969 -6.035156 L 3.042969 -8.28125 C 3.042969 -8.886719 3.550781 -9.394531 4.171875 -9.394531 L 7.4375 -9.394531 C 8.886719 -9.394531 9.96875 -8.535156 9.664062 -7.339844 C 9.472656 -6.558594 8.375 -6.035156 7.277344 -6.035156 Z M 3.042969 -6.035156 "/></g></g></g><g fill="#405751" fill-opacity="1"><g transform="translate(138.990188, 84.972231)"><g/></g></g><g fill="#405751" fill-opacity="1"><g transform="translate(148.479968, 84.972231)"><g><path d="M 10.253906 -2.132812 L 8.566406 -4.316406 C 10.222656 -4.425781 11.511719 -5.683594 11.511719 -7.914062 C 11.511719 -9.699219 10.0625 -11.148438 8.296875 -11.148438 L 0.460938 -11.148438 C 0.460938 -11.148438 1.242188 -10.636719 1.242188 -9.570312 L 1.242188 -1.417969 C 1.242188 -0.445312 0.460938 0 0.460938 0 L 3.820312 0 C 3.820312 0 3.042969 -0.445312 3.042969 -1.417969 L 3.042969 -4.300781 L 6.542969 -4.300781 L 8.582031 -1.65625 C 9.394531 -0.605469 11.511719 0 12.835938 0 L 12.835938 -0.890625 C 11.816406 -0.890625 10.875 -1.335938 10.253906 -2.132812 Z M 3.042969 -6.035156 L 3.042969 -8.28125 C 3.042969 -8.886719 3.550781 -9.394531 4.171875 -9.394531 L 7.4375 -9.394531 C 8.886719 -9.394531 9.96875 -8.535156 9.664062 -7.339844 C 9.472656 -6.558594 8.375 -6.035156 7.277344 -6.035156 Z M 3.042969 -6.035156 "/></g></g></g><g fill="#405751" fill-opacity="1"><g transform="translate(166.20033, 84.972231)"><g><path d="M 3.042969 -9.714844 C 3.042969 -10.78125 3.820312 -11.148438 3.820312 -11.148438 L 0.460938 -11.148438 C 0.460938 -11.148438 1.242188 -10.667969 1.242188 -9.714844 L 1.242188 -1.417969 C 1.242188 -0.460938 0.460938 0 0.460938 0 L 3.820312 0 C 3.820312 0 3.042969 -0.460938 3.042969 -1.417969 Z M 3.042969 -9.714844 "/></g></g></g><g fill="#405751" fill-opacity="1"><g transform="translate(175.196597, 84.972231)"><g><path d="M 9.203125 -11.148438 C 9.203125 -11.148438 10.445312 -10.238281 10.253906 -9.648438 L 7.101562 -1.734375 L 6.449219 -1.734375 L 3.296875 -9.648438 C 3.105469 -10.238281 4.363281 -11.148438 4.363281 -11.148438 L -0.144531 -11.148438 C -0.144531 -11.148438 0.828125 -10.714844 1.417969 -9.492188 L 5.191406 0 L 8.359375 0 L 12.132812 -9.492188 C 12.738281 -10.714844 13.710938 -11.148438 13.710938 -11.148438 Z M 9.203125 -11.148438 "/></g></g></g><g fill="#405751" fill-opacity="1"><g transform="translate(193.490065, 84.972231)"><g><path d="M 8.695312 -1.734375 L 4.1875 -1.734375 C 3.582031 -1.734375 3.074219 -2.230469 3.074219 -2.851562 L 3.074219 -4.792969 L 6.496094 -4.792969 C 7.132812 -4.792969 7.976562 -4.285156 7.976562 -4.285156 L 7.976562 -7.007812 C 7.976562 -7.007812 7.085938 -6.542969 6.496094 -6.542969 L 3.074219 -6.542969 L 3.074219 -8.265625 C 3.074219 -8.886719 3.582031 -9.394531 4.203125 -9.394531 L 8.296875 -9.394531 C 8.871094 -9.394531 10.589844 -7.5625 10.589844 -7.5625 L 9.699219 -11.128906 L 0.492188 -11.128906 C 0.492188 -11.128906 1.273438 -10.574219 1.273438 -9.714844 L 1.273438 -1.449219 C 1.273438 -0.460938 0.492188 0.015625 0.492188 0.015625 L 10.253906 0.015625 L 10.972656 -3.855469 C 10.972656 -3.855469 9.25 -1.734375 8.695312 -1.734375 Z M 8.695312 -1.734375 "/></g></g></g><g fill="#405751" fill-opacity="1"><g transform="translate(209.713956, 84.972231)"><g><path d="M 10.253906 -2.132812 L 8.566406 -4.316406 C 10.222656 -4.425781 11.511719 -5.683594 11.511719 -7.914062 C 11.511719 -9.699219 10.0625 -11.148438 8.296875 -11.148438 L 0.460938 -11.148438 C 0.460938 -11.148438 1.242188 -10.636719 1.242188 -9.570312 L 1.242188 -1.417969 C 1.242188 -0.445312 0.460938 0 0.460938 0 L 3.820312 0 C 3.820312 0 3.042969 -0.445312 3.042969 -1.417969 L 3.042969 -4.300781 L 6.542969 -4.300781 L 8.582031 -1.65625 C 9.394531 -0.605469 11.511719 0 12.835938 0 L 12.835938 -0.890625 C 11.816406 -0.890625 10.875 -1.335938 10.253906 -2.132812 Z M 3.042969 -6.035156 L 3.042969 -8.28125 C 3.042969 -8.886719 3.550781 -9.394531 4.171875 -9.394531 L 7.4375 -9.394531 C 8.886719 -9.394531 9.96875 -8.535156 9.664062 -7.339844 C 9.472656 -6.558594 8.375 -6.035156 7.277344 -6.035156 Z M 3.042969 -6.035156 "/></g></g></g><g fill="#405751" fill-opacity="1"><g transform="translate(98.758112, 97.63369)"><g><path d="M 11.65625 -4.027344 C 11.65625 -4.027344 10.507812 -1.558594 6.578125 -1.558594 C 3.917969 -1.558594 2.261719 -3.296875 2.261719 -5.574219 C 2.261719 -7.800781 3.917969 -9.570312 6.558594 -9.570312 C 9.078125 -9.570312 10.78125 -8.742188 10.78125 -7.40625 L 12.578125 -7.214844 C 12.578125 -9.746094 9.570312 -11.304688 6.625 -11.304688 C 3.441406 -11.304688 0.476562 -8.726562 0.476562 -5.574219 C 0.476562 -2.386719 3.441406 0.175781 6.625 0.175781 C 11.113281 0.175781 12.421875 -3.550781 12.421875 -3.550781 Z M 11.65625 -4.027344 "/></g></g></g><g fill="#405751" fill-opacity="1"><g transform="translate(116.52623, 97.63369)"><g><path d="M 9.332031 0.015625 L 13.835938 0.015625 C 13.835938 0.015625 12.867188 -0.414062 12.261719 -1.640625 L 8.488281 -11.128906 L 5.320312 -11.128906 L 1.542969 -1.640625 C 0.957031 -0.414062 -0.015625 0.015625 -0.015625 0.015625 L 4.492188 0.015625 C 4.492188 0.015625 3.234375 -0.890625 3.421875 -1.480469 L 4.285156 -3.648438 L 9.523438 -3.648438 L 10.382812 -1.480469 C 10.574219 -0.890625 9.332031 0.015625 9.332031 0.015625 Z M 4.984375 -5.398438 L 6.578125 -9.394531 L 7.230469 -9.394531 L 8.835938 -5.398438 Z M 4.984375 -5.398438 "/></g></g></g><g fill="#405751" fill-opacity="1"><g transform="translate(135.074426, 97.63369)"><g><path d="M 14.15625 0.015625 L 17.53125 0.015625 C 17.53125 0.015625 16.734375 -0.367188 16.734375 -1.417969 L 16.734375 -11.128906 L 13.3125 -11.128906 L 9.554688 -1.734375 L 8.441406 -1.734375 L 4.679688 -11.128906 L 1.257812 -11.128906 L 1.257812 -1.417969 C 1.257812 -0.542969 0.476562 0.015625 0.476562 0.015625 L 3.835938 0.015625 C 3.835938 0.015625 3.058594 -0.476562 3.058594 -1.417969 L 3.058594 -9.394531 L 3.503906 -9.394531 L 7.261719 0.015625 L 10.734375 0 L 14.492188 -9.394531 L 14.9375 -9.394531 L 14.9375 -1.417969 C 14.9375 -0.414062 14.15625 0.015625 14.15625 0.015625 Z M 14.15625 0.015625 "/></g></g></g><g fill="#405751" fill-opacity="1"><g transform="translate(157.809542, 97.63369)"><g><path d="M 8.28125 -11.128906 L 8.28125 -11.148438 L 0.460938 -11.148438 C 0.460938 -11.148438 1.242188 -10.636719 1.242188 -9.570312 L 1.242188 -1.417969 C 1.242188 -0.460938 0.460938 0 0.460938 0 L 3.820312 0 C 3.820312 0 3.042969 -0.460938 3.042969 -1.417969 L 3.042969 -4.300781 L 8.28125 -4.300781 C 10.0625 -4.300781 11.511719 -5.574219 11.511719 -7.914062 C 11.511719 -9.699219 10.0625 -11.128906 8.28125 -11.128906 Z M 7.277344 -6.035156 L 3.042969 -6.035156 L 3.042969 -8.28125 C 3.042969 -8.886719 3.550781 -9.394531 4.171875 -9.394531 L 7.453125 -9.394531 C 8.902344 -9.394531 9.96875 -8.535156 9.664062 -7.339844 C 9.472656 -6.558594 8.375 -6.035156 7.277344 -6.035156 Z M 7.277344 -6.035156 "/></g></g></g></svg>