<svg xmlns="http://www.w3.org/2000/svg" xmlns:xlink="http://www.w3.org/1999/xlink" width="500" zoomAndPan="magnify" viewBox="0 0 375 374.999991" height="500" preserveAspectRatio="xMidYMid meet" version="1.0"><defs><g/><clipPath id="b666ff77a1"><path d="M 111.140625 129 L 264 129 L 264 172.277344 L 111.140625 172.277344 Z M 111.140625 129 " clip-rule="nonzero"/></clipPath><clipPath id="684b57ed6f"><path d="M 160 167 L 199.308594 167 L 199.308594 188 L 160 188 Z M 160 167 " clip-rule="nonzero"/></clipPath></defs><g clip-path="url(#b666ff77a1)"><path fill="#ffffff" d="M 111.402344 172.574219 C 113.816406 170.847656 118.988281 168.917969 123.503906 165.808594 C 127.839844 162.820312 129.695312 160.410156 134.941406 157.492188 C 137.007812 156.34375 139.15625 155.117188 140.726562 154.042969 C 142.171875 153.054688 143.308594 153.578125 144.714844 154.386719 C 149 156.863281 151.851562 156.734375 155.808594 153.15625 C 161.546875 147.972656 168.09375 139.066406 174.082031 134.945312 C 179.386719 131.296875 181.527344 126.457031 188.707031 131.03125 C 198 136.957031 199.558594 142.40625 211.140625 147.007812 C 216.707031 149.222656 223.445312 152.867188 227.570312 156.953125 C 229.667969 159.027344 235.648438 161.335938 240.097656 163.039062 C 248.0625 166.085938 255.355469 169.027344 263.578125 172.089844 C 261.042969 172.71875 254.691406 171.808594 251.984375 170.945312 C 244.863281 168.675781 235.519531 170.742188 233.683594 167.617188 C 233.375 167.085938 233.003906 166.449219 232.371094 165.71875 C 230.242188 163.261719 228.8125 166.519531 227.394531 168.097656 C 223.964844 171.917969 225.820312 161.792969 221.304688 163.542969 C 220.855469 163.71875 213.996094 168.679688 216.375 164.21875 C 217.109375 162.839844 218.480469 160.539062 218.125 158.203125 C 217.425781 153.609375 213.242188 155.125 211.226562 157.199219 C 208.449219 160.066406 204.972656 162.484375 201.4375 163.613281 C 199.640625 164.1875 198.089844 164.710938 196.757812 165.179688 C 195.375 165.660156 194.226562 166.082031 193.273438 166.4375 C 188.726562 168.136719 190.136719 162.460938 190.070312 160.5 C 190.03125 159.347656 188.308594 158.832031 186.6875 159.660156 C 184.695312 160.679688 182.105469 162.179688 179.90625 163.335938 C 173.53125 166.6875 168.765625 164.203125 176.5625 160.871094 C 178.390625 160.089844 180.648438 159.085938 182.109375 157.277344 C 184.304688 154.5625 182.53125 153.8125 179.832031 154.980469 C 178.738281 155.457031 177.300781 155.726562 176.03125 156.914062 C 174.160156 158.667969 173.765625 156.253906 176.691406 152.613281 C 178.28125 150.632812 179.832031 149.8125 181.8125 148.394531 C 183.078125 147.488281 184.550781 146.144531 184.777344 144.371094 C 185.089844 141.867188 185.128906 132.203125 181.105469 134.402344 C 175.3125 137.570312 175.324219 139.730469 172.105469 144.808594 C 169.511719 148.910156 164.734375 152.738281 160.234375 155.652344 C 157.460938 157.445312 146.390625 170.023438 146.773438 165.941406 C 146.847656 165.160156 147.84375 162.148438 147.808594 162.0625 C 144.835938 161.078125 144.082031 167.914062 138.902344 167.914062 C 137.796875 167.914062 137.707031 164.800781 141.074219 162.691406 C 142.160156 162.007812 147.65625 156.007812 137.917969 159.972656 C 134.539062 161.347656 125.773438 168.667969 119.808594 171.023438 C 117.441406 171.960938 114.117188 172.503906 111.402344 172.574219 " fill-opacity="1" fill-rule="evenodd"/></g><g clip-path="url(#684b57ed6f)"><path fill="#ffffff" d="M 174.378906 175.359375 C 172.949219 168.988281 166.867188 167.949219 165.605469 173.664062 C 165.640625 173.527344 165.613281 173.636719 165.621094 173.609375 C 164.320312 179.71875 171.636719 183.105469 176.820312 183.046875 C 176.808594 183.046875 176.871094 183.042969 176.796875 183.050781 C 184.238281 182.878906 192.5 179.441406 199.53125 183.101562 C 195.996094 182.707031 191.863281 183.695312 188.464844 184.847656 C 170.398438 192.03125 162.761719 183.539062 161.03125 178.59375 C 158.785156 171.867188 164.878906 164.511719 171.335938 167.824219 C 171.332031 167.824219 171.417969 167.859375 171.390625 167.847656 C 174.101562 169.222656 175.046875 172.425781 174.378906 175.359375 " fill-opacity="1" fill-rule="nonzero"/></g><path fill="#ffffff" d="M 150.230469 173.761719 C 152.414062 190.351562 166.042969 192.246094 179.398438 189.777344 C 185.761719 188.417969 192.199219 184.777344 198.800781 186.148438 C 195.269531 186.765625 191.53125 188.828125 188.371094 190.585938 C 168.539062 202.367188 144.59375 192.191406 150.230469 173.761719 " fill-opacity="1" fill-rule="nonzero"/><path fill="#ffffff" d="M 158.738281 163.335938 C 158.738281 163.335938 148.863281 175.585938 162.804688 186.519531 C 162.804688 186.519531 143.058594 177.238281 158.738281 163.335938 " fill-opacity="1" fill-rule="nonzero"/><path fill="#ffffff" d="M 170.722656 163.808594 C 170.722656 163.808594 160.082031 162.421875 158.265625 172.78125 C 158.265625 172.78125 157.136719 159.949219 170.722656 163.808594 " fill-opacity="1" fill-rule="nonzero"/><g fill="#ffffff" fill-opacity="1"><g transform="translate(98.378216, 212.093115)"><g><path d="M 9.796875 -6.046875 C 10.609375 -6.609375 11.03125 -7.390625 11.015625 -8.640625 C 11.015625 -10.078125 9.640625 -11.203125 8.203125 -11.203125 L 0.5 -11.203125 C 0.5 -11.203125 1.28125 -10.875 1.28125 -9.78125 L 1.28125 -1.421875 C 1.28125 -0.453125 0.5 0.015625 0.5 0.015625 L 8.390625 0.015625 C 9.984375 0.015625 11.515625 -1.265625 11.515625 -2.875 C 11.5 -4.359375 10.921875 -5.453125 9.796875 -6.046875 Z M 7.328125 -9.453125 C 8.625 -9.453125 9.46875 -8.78125 9.078125 -7.625 C 8.84375 -6.96875 8 -6.859375 7.203125 -6.859375 L 3.09375 -6.859375 L 3.09375 -8.25 C 3.09375 -8.90625 3.625 -9.453125 4.296875 -9.453125 Z M 7.453125 -1.75 L 4.21875 -1.75 C 3.59375 -1.75 3.09375 -2.25 3.09375 -2.875 L 3.09375 -5.109375 L 7.28125 -5.109375 C 8.390625 -5.109375 9.421875 -4.84375 9.65625 -3.765625 C 9.9375 -2.421875 8.875 -1.75 7.453125 -1.75 Z M 7.453125 -1.75 "/></g></g></g><g fill="#ffffff" fill-opacity="1"><g transform="translate(115.26062, 212.093115)"><g><path d="M 6.71875 -9.640625 C 9.375 -9.640625 11.125 -7.890625 11.125 -5.59375 C 11.125 -3.328125 9.375 -1.578125 6.71875 -1.578125 C 4.0625 -1.578125 2.3125 -3.515625 2.3125 -5.59375 C 2.3125 -7.828125 4.0625 -9.640625 6.71875 -9.640625 Z M 0.515625 -5.59375 C 0.515625 -2.015625 3.53125 0.171875 6.71875 0.171875 C 9.90625 0.171875 12.921875 -2.09375 12.921875 -5.59375 C 12.921875 -9.09375 9.90625 -11.375 6.71875 -11.375 C 3.53125 -11.375 0.515625 -9.1875 0.515625 -5.59375 Z M 0.515625 -5.59375 "/></g></g></g><g fill="#ffffff" fill-opacity="1"><g transform="translate(133.457585, 212.093115)"><g><path d="M 14.25 0.015625 L 17.65625 0.015625 C 17.65625 0.015625 16.84375 -0.375 16.84375 -1.421875 L 16.84375 -11.203125 L 13.40625 -11.203125 L 9.625 -1.75 L 8.5 -1.75 L 4.71875 -11.203125 L 1.265625 -11.203125 L 1.265625 -1.421875 C 1.265625 -0.546875 0.484375 0.015625 0.484375 0.015625 L 3.859375 0.015625 C 3.859375 0.015625 3.078125 -0.484375 3.078125 -1.421875 L 3.078125 -9.453125 L 3.53125 -9.453125 L 7.3125 0.015625 L 10.8125 0 L 14.59375 -9.453125 L 15.03125 -9.453125 L 15.03125 -1.421875 C 15.03125 -0.421875 14.25 0.015625 14.25 0.015625 Z M 14.25 0.015625 "/></g></g></g><g fill="#ffffff" fill-opacity="1"><g transform="translate(156.351687, 212.093115)"><g><path d="M 0.453125 -11.21875 C 0.453125 -11.21875 1.25 -10.703125 1.25 -9.78125 L 1.25 -2.125 C 1.25 0.625 -0.984375 2.84375 -3.734375 2.84375 L -3.734375 3.75 C -0.46875 3.75 3.0625 1.09375 3.0625 -2.1875 L 3.0625 -9.78125 C 3.0625 -10.75 3.84375 -11.21875 3.84375 -11.21875 Z M 0.453125 -11.21875 "/></g></g></g><g fill="#ffffff" fill-opacity="1"><g transform="translate(165.378797, 212.093115)"><g><path d="M 3.0625 -9.78125 C 3.0625 -10.859375 3.84375 -11.21875 3.84375 -11.21875 L 0.46875 -11.21875 C 0.46875 -11.21875 1.25 -10.734375 1.25 -9.78125 L 1.25 -1.421875 C 1.25 -0.46875 0.46875 0 0.46875 0 L 3.84375 0 C 3.84375 0 3.0625 -0.46875 3.0625 -1.421875 Z M 3.0625 -9.78125 "/></g></g></g><g fill="#ffffff" fill-opacity="1"><g transform="translate(174.437974, 212.093115)"><g><path d="M 10.328125 -2.140625 L 8.625 -4.34375 C 10.296875 -4.453125 11.59375 -5.71875 11.59375 -7.96875 C 11.59375 -9.765625 10.125 -11.21875 8.359375 -11.21875 L 0.46875 -11.21875 C 0.46875 -11.21875 1.25 -10.703125 1.25 -9.640625 L 1.25 -1.421875 C 1.25 -0.453125 0.46875 0 0.46875 0 L 3.84375 0 C 3.84375 0 3.0625 -0.453125 3.0625 -1.421875 L 3.0625 -4.328125 L 6.59375 -4.328125 L 8.640625 -1.671875 C 9.453125 -0.609375 11.59375 0 12.921875 0 L 12.921875 -0.890625 C 11.890625 -0.890625 10.953125 -1.34375 10.328125 -2.140625 Z M 3.0625 -6.078125 L 3.0625 -8.34375 C 3.0625 -8.953125 3.578125 -9.453125 4.203125 -9.453125 L 7.484375 -9.453125 C 8.953125 -9.453125 10.03125 -8.59375 9.734375 -7.390625 C 9.53125 -6.609375 8.4375 -6.078125 7.328125 -6.078125 Z M 3.0625 -6.078125 "/></g></g></g><g fill="#ffffff" fill-opacity="1"><g transform="translate(192.282253, 212.093115)"><g/></g></g><g fill="#ffffff" fill-opacity="1"><g transform="translate(201.838395, 212.093115)"><g><path d="M 10.328125 -2.140625 L 8.625 -4.34375 C 10.296875 -4.453125 11.59375 -5.71875 11.59375 -7.96875 C 11.59375 -9.765625 10.125 -11.21875 8.359375 -11.21875 L 0.46875 -11.21875 C 0.46875 -11.21875 1.25 -10.703125 1.25 -9.640625 L 1.25 -1.421875 C 1.25 -0.453125 0.46875 0 0.46875 0 L 3.84375 0 C 3.84375 0 3.0625 -0.453125 3.0625 -1.421875 L 3.0625 -4.328125 L 6.59375 -4.328125 L 8.640625 -1.671875 C 9.453125 -0.609375 11.59375 0 12.921875 0 L 12.921875 -0.890625 C 11.890625 -0.890625 10.953125 -1.34375 10.328125 -2.140625 Z M 3.0625 -6.078125 L 3.0625 -8.34375 C 3.0625 -8.953125 3.578125 -9.453125 4.203125 -9.453125 L 7.484375 -9.453125 C 8.953125 -9.453125 10.03125 -8.59375 9.734375 -7.390625 C 9.53125 -6.609375 8.4375 -6.078125 7.328125 -6.078125 Z M 3.0625 -6.078125 "/></g></g></g><g fill="#ffffff" fill-opacity="1"><g transform="translate(219.682675, 212.093115)"><g><path d="M 3.0625 -9.78125 C 3.0625 -10.859375 3.84375 -11.21875 3.84375 -11.21875 L 0.46875 -11.21875 C 0.46875 -11.21875 1.25 -10.734375 1.25 -9.78125 L 1.25 -1.421875 C 1.25 -0.46875 0.46875 0 0.46875 0 L 3.84375 0 C 3.84375 0 3.0625 -0.46875 3.0625 -1.421875 Z M 3.0625 -9.78125 "/></g></g></g><g fill="#ffffff" fill-opacity="1"><g transform="translate(228.741852, 212.093115)"><g><path d="M 9.265625 -11.21875 C 9.265625 -11.21875 10.515625 -10.3125 10.328125 -9.71875 L 7.15625 -1.75 L 6.5 -1.75 L 3.3125 -9.71875 C 3.125 -10.3125 4.390625 -11.21875 4.390625 -11.21875 L -0.140625 -11.21875 C -0.140625 -11.21875 0.828125 -10.78125 1.421875 -9.546875 L 5.21875 0 L 8.421875 0 L 12.21875 -9.546875 C 12.828125 -10.78125 13.796875 -11.21875 13.796875 -11.21875 Z M 9.265625 -11.21875 "/></g></g></g><g fill="#ffffff" fill-opacity="1"><g transform="translate(247.163245, 212.093115)"><g><path d="M 8.75 -1.75 L 4.21875 -1.75 C 3.609375 -1.75 3.09375 -2.25 3.09375 -2.875 L 3.09375 -4.828125 L 6.546875 -4.828125 C 7.1875 -4.828125 8.03125 -4.3125 8.03125 -4.3125 L 8.03125 -7.046875 C 8.03125 -7.046875 7.140625 -6.59375 6.546875 -6.59375 L 3.09375 -6.59375 L 3.09375 -8.3125 C 3.09375 -8.953125 3.609375 -9.453125 4.234375 -9.453125 L 8.359375 -9.453125 C 8.921875 -9.453125 10.65625 -7.609375 10.65625 -7.609375 L 9.765625 -11.203125 L 0.5 -11.203125 C 0.5 -11.203125 1.28125 -10.640625 1.28125 -9.78125 L 1.28125 -1.453125 C 1.28125 -0.46875 0.5 0.015625 0.5 0.015625 L 10.328125 0.015625 L 11.046875 -3.875 C 11.046875 -3.875 9.3125 -1.75 8.75 -1.75 Z M 8.75 -1.75 "/></g></g></g><g fill="#ffffff" fill-opacity="1"><g transform="translate(263.500589, 212.093115)"><g><path d="M 10.328125 -2.140625 L 8.625 -4.34375 C 10.296875 -4.453125 11.59375 -5.71875 11.59375 -7.96875 C 11.59375 -9.765625 10.125 -11.21875 8.359375 -11.21875 L 0.46875 -11.21875 C 0.46875 -11.21875 1.25 -10.703125 1.25 -9.640625 L 1.25 -1.421875 C 1.25 -0.453125 0.46875 0 0.46875 0 L 3.84375 0 C 3.84375 0 3.0625 -0.453125 3.0625 -1.421875 L 3.0625 -4.328125 L 6.59375 -4.328125 L 8.640625 -1.671875 C 9.453125 -0.609375 11.59375 0 12.921875 0 L 12.921875 -0.890625 C 11.890625 -0.890625 10.953125 -1.34375 10.328125 -2.140625 Z M 3.0625 -6.078125 L 3.0625 -8.34375 C 3.0625 -8.953125 3.578125 -9.453125 4.203125 -9.453125 L 7.484375 -9.453125 C 8.953125 -9.453125 10.03125 -8.59375 9.734375 -7.390625 C 9.53125 -6.609375 8.4375 -6.078125 7.328125 -6.078125 Z M 3.0625 -6.078125 "/></g></g></g><g fill="#ffffff" fill-opacity="1"><g transform="translate(151.768837, 224.843114)"><g><path d="M 11.734375 -4.0625 C 11.734375 -4.0625 10.578125 -1.578125 6.625 -1.578125 C 3.9375 -1.578125 2.28125 -3.3125 2.28125 -5.609375 C 2.28125 -7.859375 3.9375 -9.640625 6.609375 -9.640625 C 9.140625 -9.640625 10.859375 -8.796875 10.859375 -7.453125 L 12.671875 -7.265625 C 12.671875 -9.8125 9.640625 -11.375 6.671875 -11.375 C 3.46875 -11.375 0.484375 -8.78125 0.484375 -5.609375 C 0.484375 -2.40625 3.46875 0.171875 6.671875 0.171875 C 11.1875 0.171875 12.5 -3.578125 12.5 -3.578125 Z M 11.734375 -4.0625 "/></g></g></g><g fill="#ffffff" fill-opacity="1"><g transform="translate(169.661206, 224.843114)"><g><path d="M 9.390625 0.015625 L 13.9375 0.015625 C 13.9375 0.015625 12.953125 -0.421875 12.34375 -1.65625 L 8.546875 -11.203125 L 5.359375 -11.203125 L 1.5625 -1.65625 C 0.96875 -0.421875 -0.015625 0.015625 -0.015625 0.015625 L 4.515625 0.015625 C 4.515625 0.015625 3.25 -0.890625 3.453125 -1.484375 L 4.3125 -3.671875 L 9.59375 -3.671875 L 10.453125 -1.484375 C 10.640625 -0.890625 9.390625 0.015625 9.390625 0.015625 Z M 5.015625 -5.4375 L 6.625 -9.453125 L 7.28125 -9.453125 L 8.890625 -5.4375 Z M 5.015625 -5.4375 "/></g></g></g><g fill="#ffffff" fill-opacity="1"><g transform="translate(188.339109, 224.843114)"><g><path d="M 14.25 0.015625 L 17.65625 0.015625 C 17.65625 0.015625 16.84375 -0.375 16.84375 -1.421875 L 16.84375 -11.203125 L 13.40625 -11.203125 L 9.625 -1.75 L 8.5 -1.75 L 4.71875 -11.203125 L 1.265625 -11.203125 L 1.265625 -1.421875 C 1.265625 -0.546875 0.484375 0.015625 0.484375 0.015625 L 3.859375 0.015625 C 3.859375 0.015625 3.078125 -0.484375 3.078125 -1.421875 L 3.078125 -9.453125 L 3.53125 -9.453125 L 7.3125 0.015625 L 10.8125 0 L 14.59375 -9.453125 L 15.03125 -9.453125 L 15.03125 -1.421875 C 15.03125 -0.421875 14.25 0.015625 14.25 0.015625 Z M 14.25 0.015625 "/></g></g></g><g fill="#ffffff" fill-opacity="1"><g transform="translate(211.233211, 224.843114)"><g><path d="M 8.34375 -11.203125 L 8.34375 -11.21875 L 0.46875 -11.21875 C 0.46875 -11.21875 1.25 -10.703125 1.25 -9.640625 L 1.25 -1.421875 C 1.25 -0.46875 0.46875 0 0.46875 0 L 3.84375 0 C 3.84375 0 3.0625 -0.46875 3.0625 -1.421875 L 3.0625 -4.328125 L 8.34375 -4.328125 C 10.125 -4.328125 11.59375 -5.609375 11.59375 -7.96875 C 11.59375 -9.765625 10.125 -11.203125 8.34375 -11.203125 Z M 7.328125 -6.078125 L 3.0625 -6.078125 L 3.0625 -8.34375 C 3.0625 -8.953125 3.578125 -9.453125 4.203125 -9.453125 L 7.5 -9.453125 C 8.96875 -9.453125 10.03125 -8.59375 9.734375 -7.390625 C 9.53125 -6.609375 8.4375 -6.078125 7.328125 -6.078125 Z M 7.328125 -6.078125 "/></g></g></g></svg>