<svg width="86" height="63" viewBox="0 0 86 63" fill="none" xmlns="http://www.w3.org/2000/svg">
<path d="M82.3622 51.8059H79.2067C78.9374 51.8059 78.6934 51.6703 78.5539 51.4398L66.6777 32.1388C66.0191 31.0696 64.8298 30.4071 63.5765 30.4071H55.2297V22.9649H58.0365C58.6021 22.9649 59.1154 22.6317 59.3459 22.1164C59.5784 21.6012 59.4835 20.9968 59.1077 20.5745L41.4842 0.806741C40.9399 0.194628 39.8862 0.194628 39.3418 0.806741L21.7184 20.5745C21.3426 20.9968 21.2477 21.6012 21.4801 22.1164C21.7107 22.6317 22.224 22.9649 22.7896 22.9649H25.5964V29.1499H1.43537C0.641169 29.1499 0 29.793 0 30.5853V61.5629C0 62.3571 0.643106 62.9982 1.43537 62.9982C2.22763 62.9982 2.87073 62.3551 2.87073 61.5629V32.0226H8.62576V52.4664H8.24997C6.95214 52.4664 5.8945 53.5221 5.8945 54.8219V57.6461C5.8945 58.944 6.95214 60.0016 8.24997 60.0016H20.0467C21.3446 60.0016 22.4002 58.9459 22.4002 57.6461V54.8219C22.4002 53.524 21.3465 52.4664 20.0467 52.4664H19.669V32.0226H25.5964V61.5648C25.5964 62.359 26.2395 63.0002 27.0318 63.0002H53.7904C54.5846 63.0002 55.2258 62.3571 55.2258 61.5648V39.9839H60.297C60.5663 39.9839 60.8104 40.1195 60.9498 40.35L72.826 59.651C73.4827 60.7202 74.672 61.3847 75.9272 61.3847H82.3583C84.367 61.3847 86 59.7517 86 57.743V55.4476C86.0019 53.4388 84.3709 51.8059 82.3622 51.8059ZM16.7983 52.4664H11.5004V32.0226H16.7983V52.4664ZM36.3123 11.418C36.4924 11.0887 36.7113 10.7846 36.9612 10.5076V10.5056C37.8174 9.5681 39.0474 8.97923 40.4111 8.97923C41.7748 8.97923 43.0048 9.5681 43.861 10.5056V10.5076C44.1109 10.7846 44.3298 11.0887 44.5099 11.418C44.8702 12.0785 45.0736 12.8359 45.0736 13.6398C45.0736 15.0074 44.4828 16.2374 43.5433 17.0917C43.4329 17.1924 43.3186 17.2873 43.1985 17.3764C43.1385 17.421 43.0784 17.4636 43.0165 17.5062C42.7666 17.6747 42.5031 17.82 42.2242 17.9362C41.6663 18.1726 41.0523 18.3043 40.4111 18.3043C39.7699 18.3043 39.1559 18.1726 38.598 17.9362C38.3191 17.82 38.0556 17.6747 37.8057 17.5062C37.7438 17.4636 37.6837 17.421 37.6237 17.3764C37.5036 17.2873 37.3893 17.1924 37.2789 17.0917C36.3394 16.2374 35.7486 15.0074 35.7486 13.6398C35.7486 12.8359 35.952 12.0785 36.3123 11.418ZM34.0905 60.1275H28.4691V40.013H34.0905V60.1275ZM43.861 60.1275H36.9612V56.9236H43.861V60.1275ZM43.861 54.0509H36.9612V51.5076H43.861V54.0509ZM43.863 48.6349H36.9631V46.0915H43.863V48.6349ZM43.863 43.2188H36.9631V40.013H43.863V43.2188ZM52.3551 60.1275H46.7337V40.013H52.3551V60.1275ZM52.3551 37.1403H28.4691V22.9649H52.3551V37.1403Z" fill="white"/>
</svg>
