<svg width="86" height="50" viewBox="0 0 86 50" fill="none" xmlns="http://www.w3.org/2000/svg">
<path d="M77.7158 0.267578H8.28424C3.71212 0.274296 0.00670803 3.9797 0 8.55182V32.0609C0.00671878 36.633 3.71212 40.3384 8.28424 40.3451H77.7158C82.2879 40.3384 85.9933 36.633 86 32.0609V8.55182C85.9933 3.9797 82.2879 0.274286 77.7158 0.267578ZM74.7629 37.9934H11.237V33.6463C11.237 32.2118 12.4027 31.0495 13.8371 31.0495H72.1127C73.574 31.0495 74.7632 32.2354 74.7632 33.7001L74.7629 37.9934ZM83.6484 32.0607V32.0573C83.6451 35.3361 80.9912 37.99 77.7124 37.9934H77.1111V33.7034C77.1077 30.9387 74.8703 28.7013 72.1089 28.6979H13.8368C11.1023 28.7013 8.88846 30.9151 8.88511 33.6463V37.99H8.28378C5.00501 37.9866 2.35113 35.3328 2.34777 32.0573V8.55173C2.35113 5.27632 5.00501 2.62243 8.28378 2.61908H77.7153C80.9907 2.62244 83.6479 5.27632 83.6479 8.55173L83.6484 32.0607ZM74.1445 4.98091H71.1715C70.1502 4.98427 69.3205 5.81404 69.3205 6.83525V9.44889C69.3239 10.4701 70.1503 11.2965 71.1715 11.2965H74.1445C75.1658 11.2965 75.9955 10.4701 75.9955 9.44889V6.83525C75.9955 5.81064 75.1657 4.98427 74.1445 4.98091ZM73.644 8.94166L71.672 8.94502V7.33251H73.644V8.94166ZM42.9995 18.1231C41.2795 18.1231 39.7274 19.1577 39.069 20.7468C38.4105 22.3358 38.7734 24.1667 39.9928 25.3827C41.2089 26.5988 43.0364 26.9649 44.6254 26.3065C46.2143 25.6481 47.2524 24.096 47.2524 22.376C47.2491 20.0278 45.3477 18.1264 42.9995 18.1231ZM42.9995 24.2741C42.2302 24.2741 41.5381 23.8105 41.2458 23.1016C40.9502 22.3928 41.1115 21.5731 41.6557 21.0323C42.1999 20.4881 43.0162 20.3268 43.725 20.6191C44.4372 20.9147 44.9008 21.6067 44.9008 22.3727C44.8974 23.4242 44.0476 24.2741 42.9995 24.2741ZM66.0785 42.1157C66.8881 43.5199 69.9552 48.8244 69.9552 48.8244L67.9194 50.0002C67.9194 50.0002 64.8523 44.6957 64.0427 43.2915H64.0394C63.7169 42.7271 63.9083 42.0082 64.4727 41.6857C65.0337 41.3598 65.7527 41.5547 66.0785 42.1157ZM21.2646 43.2881C20.455 44.6924 17.3946 49.9969 17.3946 49.9969L15.3588 48.8211C15.3588 48.8211 18.4192 43.5166 19.2288 42.1123C19.38 41.8369 19.6386 41.632 19.941 41.548C20.2467 41.464 20.5725 41.5043 20.8447 41.6622C21.1201 41.8201 21.3183 42.0788 21.3956 42.3878C21.4762 42.6935 21.4292 43.016 21.2646 43.2881ZM26.522 43.2881C25.7124 44.6924 22.652 49.9969 22.652 49.9969L20.6162 48.8211L24.4862 42.1123H24.4829C24.6374 41.8436 24.8961 41.6454 25.1984 41.5648C25.4974 41.4841 25.8199 41.5245 26.0887 41.6823C26.6531 42.0048 26.8446 42.7237 26.522 43.2881ZM31.7795 43.2881L27.9095 49.9969L25.867 48.8244C25.867 48.8244 28.9274 43.5199 29.737 42.1157C30.0696 41.5648 30.7784 41.3834 31.3327 41.7025C31.8904 42.0216 32.0852 42.7271 31.7762 43.2882L31.7795 43.2881ZM37.037 43.2881C36.2274 44.6924 33.167 49.9969 33.167 49.9969L31.1312 48.8211C31.1312 48.8211 34.1916 43.5166 35.0012 42.1123H34.9978C35.149 41.8369 35.4076 41.632 35.71 41.548C36.0157 41.464 36.3416 41.5043 36.6137 41.6622C36.8892 41.8201 37.0874 42.0788 37.168 42.3878C37.2453 42.6935 37.1982 43.016 37.0336 43.2882L37.037 43.2881ZM60.8247 42.1123C61.6343 43.5166 64.7014 48.8211 64.7014 48.8211L62.6656 49.9969C62.6656 49.9969 59.5985 44.6924 58.7889 43.2881L58.7821 43.2915C58.4731 42.7305 58.6713 42.025 59.2256 41.7058C59.7832 41.3833 60.4921 41.5681 60.8213 42.1157L60.8247 42.1123ZM55.5739 42.1123L59.4439 48.8211L57.4081 49.9969C57.4081 49.9969 54.3477 44.6924 53.5381 43.2881L53.5314 43.2915C53.2089 42.7271 53.4004 42.0082 53.9648 41.6857C54.5258 41.3598 55.2447 41.5547 55.5706 42.1157L55.5739 42.1123ZM50.3165 42.1123C51.1261 43.5166 54.1865 48.8211 54.1865 48.8211L52.1507 49.9969L48.2807 43.2881L48.2773 43.2915C47.9682 42.7305 48.1631 42.025 48.7174 41.7058C49.275 41.3833 49.9839 41.5681 50.3131 42.1157L50.3165 42.1123ZM36.0696 4.44333L11.7143 4.44668C10.7065 4.40637 9.72893 4.7759 9.00335 5.47465C8.27772 6.17004 7.86789 7.1342 7.86789 8.14203C7.86789 9.14652 8.27773 10.1107 9.00335 10.8094C9.72898 11.5048 10.7066 11.8777 11.7143 11.8374H36.0662C38.0516 11.7568 39.6171 10.1274 39.6171 8.14203C39.6171 6.15663 38.0516 4.52735 36.0662 4.44668L36.0696 4.44333ZM36.0696 9.48243L11.7143 9.48579C11.3515 9.49251 11.0022 9.35478 10.7401 9.10282C10.4815 8.85087 10.337 8.50485 10.337 8.14203C10.337 7.77921 10.4815 7.43319 10.7401 7.18123C11.0022 6.92591 11.3515 6.78818 11.7143 6.79826H36.0662C36.7952 6.81842 37.3763 7.41303 37.3763 8.14202C37.3763 8.87101 36.7952 9.46565 36.0662 9.48577L36.0696 9.48243Z" fill="white"/>
</svg>
